PathFileType	4	(X/Y/Z)	SUBJ63_1_walk_RCNL2025.trc
DataRate	CameraRate	NumFrames	NumMarkers	Units	OrigDataRate	OrigDataStartFrame	OrigNumFrames
100	100	11	25	mm	100	90	238
Frame#	Time	R_Shoulder			L_Shoulder			C7			J_Notch			R_Elbow			L_Elbow			R_Wrist			L_Wrist			R_Asis			L_Asis			Sacral			Thoracic			Sternum			R_Thigh_Lateral			R_Knee_Lateral			R_Shank_Lateral			R_Ankle_Lateral			R_Heel			R_Toe			L_Thigh_Lateral			L_Knee_Lateral			L_Shank_Lateral			L_Ankle_Lateral			L_Heel			L_Toe		
		X1	Y1	Z1	X2	Y2	Z2	X3	Y3	Z3	X4	Y4	Z4	X5	Y5	Z5	X6	Y6	Z6	X7	Y7	Z7	X8	Y8	Z8	X9	Y9	Z9	X10	Y10	Z10	X11	Y11	Z11	X12	Y12	Z12	X13	Y13	Z13	X14	Y14	Z14	X15	Y15	Z15	X16	Y16	Z16	X17	Y17	Z17	X18	Y18	Z18	X19	Y19	Z19	X20	Y20	Z20	X21	Y21	Z21	X22	Y22	Z22	X23	Y23	Z23	X24	Y24	Z24	X25	Y25	Z25
90	0.89000000	254.631912	1281.327393	-146.550766	290.604736	1290.963501	-481.507660	197.087952	1348.146240	-323.903534	313.319763	1241.688110	-313.335663	201.609894	999.969910	-48.134750	240.955246	995.479187	-584.012817	269.228348	784.998505	-2.998022	372.062561	809.665771	-580.318848	305.616425	837.504700	-201.300797	329.725922	825.166138	-450.313873	93.889725	850.333374	-348.671936	108.638985	1170.185669	-338.181061	356.817474	1062.956787	-304.358185	331.190155	508.897858	-136.000946	352.389069	455.530029	-181.075134	360.008636	276.313049	-134.268799	418.975525	70.882095	-204.812958	388.579956	60.886360	-264.967896	532.726990	81.285927	-184.188110	177.400665	461.411316	-512.937988	164.653671	440.096863	-443.415588	114.307411	252.479187	-467.535187	56.508472	68.955269	-379.296417	5.413768	73.937851	-328.577759	170.726730	39.557369	-372.810425
91	0.90000000	268.461212	1278.504517	-145.690384	305.742920	1289.150146	-480.131500	211.188599	1345.796509	-322.982788	327.539825	1239.160400	-312.418518	213.021088	997.625793	-46.990795	261.530060	993.614441	-583.155090	278.878128	782.361633	-0.766516	400.074997	813.548370	-575.649811	321.916382	834.135254	-200.972900	343.528625	823.106201	-451.333893	108.570572	848.028992	-346.653107	122.719276	1167.839355	-337.519531	371.187531	1059.769653	-303.609314	343.279236	503.826599	-136.880524	367.063721	452.053986	-181.729080	385.647522	273.602509	-133.747269	458.328094	71.126205	-202.808289	427.839539	58.595234	-262.631622	572.177734	88.013756	-183.790009	184.587067	461.539001	-512.790344	172.570068	440.074677	-443.064270	117.921707	253.458282	-466.980621	57.327789	70.809753	-378.533875	6.740734	76.898079	-327.519470	171.180664	39.631149	-372.755493
92	0.91000000	282.613129	1275.594116	-144.764374	320.843323	1287.288208	-478.630920	225.349792	1343.391602	-321.914703	341.865692	1236.525757	-311.484253	224.782455	995.254272	-45.775795	281.933289	991.830261	-582.029114	288.901810	779.710571	1.503456	427.230789	817.543549	-570.981598	338.434814	831.038025	-200.444534	357.552246	821.239990	-452.144135	123.399498	845.613831	-344.646362	136.857590	1165.449585	-336.644592	385.506134	1056.399658	-303.001862	355.426605	498.689545	-137.640457	381.963623	448.750031	-182.240921	410.377686	271.666565	-133.140076	494.518677	72.160660	-200.999725	463.776947	57.370544	-260.376099	608.366028	94.462296	-183.950150	192.281052	461.762909	-512.829041	181.033737	440.044220	-442.918488	122.082756	254.512604	-466.714630	58.236607	72.872849	-378.263367	8.025627	80.133537	-327.088013	171.592010	39.721569	-372.846924
93	0.92000000	297.060577	1272.662476	-143.756180	335.911682	1285.420288	-477.022217	239.588318	1340.980469	-320.701111	356.315308	1233.855835	-310.510956	236.927368	992.894653	-44.505314	302.080353	990.140808	-580.659119	299.326950	777.086548	3.797077	453.444565	821.557648	-566.358063	355.092499	828.361145	-199.764374	371.821503	819.579773	-452.681549	138.392654	843.124390	-342.637878	151.087158	1163.059082	-335.590790	399.789062	1052.978760	-302.521790	368.252136	493.952484	-138.211121	397.412445	445.812714	-182.569244	434.152100	270.337219	-132.513000	527.038147	73.484436	-199.574219	495.914276	56.808701	-258.435822	640.861023	99.986275	-184.625229	200.630493	462.029572	-513.063599	190.108032	439.980438	-443.003357	126.836090	255.632950	-466.781403	59.258347	75.169136	-378.535675	9.304080	83.681198	-327.338440	171.979538	39.804951	-373.082520
94	0.93000000	311.769806	1269.777100	-142.651108	350.957245	1283.579834	-475.327454	253.922623	1338.608276	-319.347015	370.901337	1231.223267	-309.480988	249.486084	990.580200	-43.190891	321.885773	988.544678	-579.078552	310.177185	774.525116	6.097270	478.642120	825.486389	-561.831940	371.730591	826.175964	-199.009079	386.354675	818.117615	-452.904724	153.570374	840.604736	-340.624390	165.441452	1160.705322	-334.390259	414.067261	1049.636230	-302.135345	382.402039	490.080109	-138.512985	413.691284	443.385590	-182.684509	456.896881	269.408844	-131.941391	555.514038	74.603966	-198.659698	523.884949	56.509361	-256.972534	669.351196	103.982674	-185.774826	209.818161	462.253387	-513.477234	199.878647	439.838928	-443.309540	132.229416	256.805969	-467.187378	60.426662	77.725464	-379.358978	10.644111	87.588089	-328.279968	172.365982	39.853127	-373.442780
95	0.94000000	326.704285	1267.005249	-141.436615	365.988037	1281.796875	-473.570862	268.369293	1336.315063	-317.858185	385.632874	1228.699951	-308.381165	262.482635	988.338806	-41.840557	341.270752	987.031311	-577.330200	321.469711	772.054932	8.385777	502.763748	829.221527	-557.462036	388.190643	824.485840	-198.248825	401.160614	816.829285	-452.795563	168.954941	838.106384	-338.616333	179.952332	1158.419312	-333.068390	428.397583	1046.489990	-301.787781	398.412994	487.420135	-138.485840	430.977966	441.549408	-182.583694	478.502930	268.684326	-131.484070	579.759277	75.113335	-198.300507	547.480774	56.135006	-256.044739	693.691589	105.982689	-187.376099	220.013412	462.342010	-514.037170	210.442856	439.566711	-443.806580	138.309891	258.021790	-467.908691	61.789558	80.572388	-380.699524	12.145950	91.908096	-329.865021	172.775299	39.839115	-373.900696
96	0.95000000	341.827515	1264.410645	-140.101486	381.006866	1280.102295	-471.776703	282.940186	1334.135010	-316.239594	400.516724	1226.354370	-307.200500	275.932861	986.193054	-40.460480	360.169678	985.590332	-575.463196	333.214554	769.697998	10.642939	525.766571	832.658569	-553.308075	404.393555	823.246155	-197.518768	416.239624	815.675659	-452.358368	184.567932	835.682190	-336.636536	194.648285	1156.225952	-331.640289	442.880371	1043.644775	-301.400757	416.560944	486.106781	-138.116806	449.319855	440.322296	-182.289322	498.840546	268.006927	-131.162598	599.805481	74.756241	-198.461823	566.703186	55.460751	-255.615051	713.934875	105.726341	-189.414581	231.335876	462.220276	-514.706299	221.902496	439.114471	-444.464630	145.118286	259.284241	-468.903931	63.414555	83.747307	-382.489410	13.944902	96.702370	-331.995087	173.229218	39.739117	-374.426086
97	0.96000000	357.105865	1262.049683	-138.635330	396.011383	1278.528320	-469.963745	297.640961	1332.095947	-314.494843	415.556732	1224.247803	-305.928162	289.843597	984.161987	-39.056053	378.534973	984.221191	-573.527954	345.418381	767.471649	12.847205	547.625916	835.704163	-549.426086	420.364136	822.382690	-196.815170	431.586304	814.606873	-451.615753	200.426178	833.375427	-334.713196	209.552856	1154.143799	-330.108124	457.660126	1041.192505	-300.877960	436.774841	486.036621	-137.447449	468.634705	439.662323	-181.839767	517.822937	267.269806	-130.968048	615.911438	73.453392	-199.051117	581.792969	54.401283	-255.580841	730.336365	103.198677	-191.860275	243.839035	461.847321	-515.456177	234.356354	438.444458	-445.271484	152.684128	260.618713	-470.128723	65.395302	87.298462	-384.638672	16.216232	102.043571	-334.537323	173.744034	39.535336	-374.986298
98	0.97000000	372.513489	1259.967285	-137.029861	410.997375	1277.110352	-468.139130	312.470856	1330.219849	-312.626526	430.754303	1222.429932	-304.552551	304.212189	982.262329	-37.631027	396.341248	982.938293	-571.569458	358.088684	765.389801	14.975942	568.335693	838.281738	-545.865509	436.219757	821.809265	-196.101089	447.189667	813.570007	-450.603943	216.536133	831.209473	-332.868561	224.680740	1152.187500	-328.461792	472.886139	1039.206543	-300.127899	458.659760	486.923157	-136.556030	488.712036	439.467102	-181.281433	535.468323	266.413788	-130.883301	628.539124	71.295616	-199.940216	593.216858	53.010952	-255.806641	743.330627	98.619560	-194.649002	257.510925	461.224213	-516.278076	247.894531	437.531281	-446.241089	161.029877	262.074005	-471.550629	67.857651	91.287506	-387.047577	19.178400	108.019264	-337.344086	174.331345	39.224369	-375.548187
99	0.98000000	388.036621	1258.191284	-135.281631	425.961060	1275.884155	-466.299438	327.425018	1328.524170	-310.636108	446.109344	1220.934937	-303.062378	319.026672	980.510010	-36.186661	413.585571	981.769714	-569.620972	371.234512	763.461395	17.006586	587.907684	840.334473	-542.668640	452.140503	821.445496	-195.314362	463.028687	812.518372	-449.365295	232.888245	829.183105	-331.109924	240.032928	1150.372437	-326.682922	488.650177	1037.728149	-299.095306	481.593384	488.389130	-135.530304	509.213898	439.582825	-180.661285	551.899170	265.426788	-130.895477	638.296021	68.510284	-200.987411	601.609558	51.460724	-256.150208	753.480957	92.393761	-197.676834	272.291992	460.389709	-517.189026	262.599701	436.359802	-447.414673	170.186234	263.716827	-473.159485	70.963478	95.789848	-389.619293	23.091377	114.729881	-340.272034	175.005310	38.831173	-376.084717
100	0.99000000	403.676056	1256.729858	-133.394699	440.901764	1274.881958	-464.438599	342.497864	1327.026489	-308.524170	461.618469	1219.777710	-301.450531	334.265869	978.920227	-34.723915	430.281769	980.751038	-567.700134	384.866074	761.691742	18.917446	606.368591	841.825897	-539.871918	468.316589	821.228882	-194.382919	479.067749	811.420166	-447.936462	249.451889	827.274353	-329.427704	255.593521	1148.722656	-324.751617	504.942841	1036.756714	-297.781952	504.828278	490.053955	-134.445984	529.704895	439.840149	-180.012955	567.307068	264.349182	-130.989548	645.853760	65.410240	-202.060257	607.687439	49.996151	-256.484039	761.408752	85.040131	-200.803375	288.108917	459.399933	-518.226318	278.553802	434.922241	-448.850830	180.216660	265.617493	-474.967377	74.912201	100.893150	-392.272552	28.247375	122.279533	-343.198395	175.795410	38.424427	-376.584076
